<?xml version="1.0" encoding="UTF-8" standalone="no"?>
<svg
   xmlns:dc="http://purl.org/dc/elements/1.1/"
   xmlns:cc="http://creativecommons.org/ns#"
   xmlns:rdf="http://www.w3.org/1999/02/22-rdf-syntax-ns#"
   xmlns:svg="http://www.w3.org/2000/svg"
   xmlns="http://www.w3.org/2000/svg"
   xmlns:sodipodi="http://sodipodi.sourceforge.net/DTD/sodipodi-0.dtd"
   xmlns:inkscape="http://www.inkscape.org/namespaces/inkscape"
   viewBox="0 0 48 48.000001"
   version="1.1"
   id="svg90"
   sodipodi:docname="kanapki.svg"
   inkscape:version="0.92.4 (5da689c313, 2019-01-14)"
   width="48"
   height="48">
  <metadata
     id="metadata94">
    <rdf:RDF>
      <cc:Work
         rdf:about="">
        <dc:format>image/svg+xml</dc:format>
        <dc:type
           rdf:resource="http://purl.org/dc/dcmitype/StillImage" />
        <dc:title></dc:title>
      </cc:Work>
    </rdf:RDF>
  </metadata>
  <sodipodi:namedview
     pagecolor="#ffffff"
     bordercolor="#666666"
     borderopacity="1"
     objecttolerance="10"
     gridtolerance="10"
     guidetolerance="10"
     inkscape:pageopacity="0"
     inkscape:pageshadow="2"
     inkscape:window-width="1920"
     inkscape:window-height="1001"
     id="namedview92"
     showgrid="false"
     inkscape:zoom="7.33254"
     inkscape:cx="12.237801"
     inkscape:cy="23.34337"
     inkscape:window-x="-9"
     inkscape:window-y="-9"
     inkscape:window-maximized="1"
     inkscape:current-layer="svg90"
     units="px" />
  <defs
     id="defs10">
    <filter
       id="b">
      <feGaussianBlur
         stdDeviation="1.28207"
         id="feGaussianBlur2" />
    </filter>
    <linearGradient
       id="a"
       x1="316.07001"
       x2="332.97"
       y1="536.01001"
       y2="547.48999"
       gradientUnits="userSpaceOnUse">
      <stop
         stop-color="#cf9361"
         offset="0"
         id="stop5" />
      <stop
         stop-color="#aa6934"
         offset="1"
         id="stop7" />
    </linearGradient>
  </defs>
  <g
     transform="matrix(0.49375607,0,0,0.49375607,-146.01843,-238.45407)"
     id="g88">
    <path
       transform="matrix(0.94152,0.33697,-0.33697,0.94152,529.41,210.51)"
       d="m -60.45763,363.375 c 0,0.074 -0.0039,0.14803 -0.0117,0.22193"
       id="path12"
       inkscape:connector-curvature="0"
       style="fill:#c3dd6e" />
    <path
       d="m 350.71813,489.92367 c -1.81487,0.0401 -3.07813,0.91914 -3.3125,3.0625 0,0 -7.22208,11.70352 -10,13.21875 -0.2245,0.2245 -0.67341,0.59413 -1.28125,1.0625 -0.53851,-3.20531 -1.74515,-7.8309 -4.1875,-6.84375 -3.65955,1.47911 -2.46875,4.65625 -2.46875,4.65625 0,0 -2.99142,-1.53015 -3.9375,-0.84375 -0.94608,0.6864 -1.84375,4.6875 -1.84375,4.6875 l -3.5625,-0.6875 0.0312,5.3125 c 0,0 -7.42631,-0.1902 -2.15625,3 1.15507,0.69922 2.21481,1.24549 3.21875,1.6875 l -2.5625,1.75 c -1.18787,1.18032 -1.25515,3.33553 -1.4375,5.8125 -3.24467,-0.0174 -7.847,0.37167 -7.3125,2.90625 0.81446,3.86222 4.125,3.25 4.125,3.25 0,0 -2.00986,2.66696 -1.5,3.71875 0.40403,0.83346 2.77548,1.98797 3.78125,2.4375 -0.0876,0.56114 -0.11247,1.00584 0.0312,1.4375 l -0.8125,2.15625 2.5625,0.4375 c 0.48558,0.54897 1.14413,1.21486 1.875,1.9375 0.15352,0.25415 0.33692,0.50726 0.53125,0.75 -0.0376,1.35636 0.24632,2.63775 1.65625,1.59375 0.31923,0.23975 0.66944,0.46814 1.03125,0.6875 2.19851,1.98719 4.73094,4.15545 7.3125,6.21875 0.43753,0.34969 5.84719,4.01151 12.03125,8.15625 11.83362,7.93124 13.11073,8.90793 13.71875,10.5 0.27732,0.72608 0.27447,0.79357 -0.0937,1.5 -0.21079,0.40435 -0.3578,0.7672 -0.3125,0.8125 0.0453,0.0453 1.29071,0.18287 2.78125,0.3125 1.49054,0.12963 3.14702,0.2088 3.6875,0.1875 2.64294,-0.10435 7.76898,-3.90184 13.21875,-9.8125 3.55237,-3.85278 7.93377,-9.31847 12.0625,-14.96875 3.43978,-1.33767 5.76472,-2.4118 5.84375,-2.875 0.0257,-0.15039 -0.10438,-0.51648 -0.28125,-1.03125 3.01713,-1.55065 4.90625,-3.78036 4.90625,-6.25 0,-1.99 -1.22598,-3.80295 -3.28125,-5.25 0.29415,-1.82436 0.55749,-3.4755 0.875,-5.34375 0.51995,-3.05939 0.88655,-5.5822 0.84375,-5.625 -0.0428,-0.0428 -0.63791,0.0799 -1.34375,0.28125 -0.0576,0.0164 -0.12573,0.0453 -0.1875,0.0625 0.27449,-2.54429 0.46875,-4.78125 0.46875,-4.78125 -0.0697,0.13257 -0.14787,0.34944 -0.21875,0.53125 l 0.28125,-1.8125 c 0,0 -0.13814,0.16102 -0.15625,0.1875 0.459,-1.88962 0.1924,-1.49759 -1.5,-1.125 -1.52911,0.2889 -3.78742,0.53172 -5.71875,-0.0625 l -17.5,-12.84375 c 0.1973,-3.55132 -13.42458,-14.2995 -19.90625,-14.15625 z m 19.9375,10.46875 c 0.47875,0.69933 0.82728,1.39951 1,2.15625 l 0.4375,0.3125 c -0.18704,-0.6076 -0.48064,-1.17395 -0.875,-1.75 -0.16455,-0.24037 -0.37006,-0.47469 -0.5625,-0.71875 z m 22.75,31.78125 -0.1875,1 -0.1875,0.28125 -0.28125,-0.15625 c 0.21456,-0.38478 0.45674,-0.74691 0.65625,-1.125 z m -20.4375,26.65625 c -2.37022,2.30395 -4.51185,4.05253 -6.375,5.15625 -10e-4,-0.043 0.002,-0.0825 0,-0.125 1.93659,-1.27627 4.18392,-3.00104 6.375,-5.03125 z"
       id="path14"
       inkscape:connector-curvature="0"
       style="fill:#d3d7cf;filter:url(#b)" />
    <path
       d="m 348.63,574.61 c -1.4905,-0.12963 -2.7472,-0.27277 -2.7925,-0.31808 -0.0453,-0.0453 0.09,-0.41322 0.30079,-0.81757 0.36822,-0.70643 0.37192,-0.7647 0.0946,-1.4908 -0.60802,-1.5921 -1.8676,-2.5562 -13.701,-10.487 -6.1841,-4.1447 -11.602,-7.822 -12.039,-8.1717 -5.872,-4.6931 -11.689,-10.052 -13.193,-12.153 -1.079,-1.5075 -1.2085,-1.9511 -0.96065,-3.2928 0.24934,-1.35 0.70089,-6.3294 0.59837,-6.5985 -0.041,-0.10746 0.11991,-0.62453 0.35747,-1.149 1.0558,-2.3311 4.5087,-5.5086 12.756,-11.738 6.1436,-4.6406 6.8385,-5.2375 8.4938,-7.2954 1.8188,-2.2612 6.7974,-9.6522 6.7974,-10.091 0,-0.16977 0.20391,-0.71789 0.45315,-1.218 0.50396,-1.0113 1.5888,-1.857 2.8068,-2.1881 1.8257,-0.49624 5.2012,0.29945 8.5841,2.0235 5.8919,3.0028 12.182,8.3865 13.629,11.666 0.41598,0.94257 0.5346,1.0385 8.695,7.0341 4.5503,3.3432 8.4489,6.1506 8.6636,6.2386 0.5756,0.23609 3.412,0.20337 4.633,-0.0534 0.58337,-0.12271 1.6382,-0.38786 2.344,-0.58922 0.7058,-0.20136 1.3184,-0.33107 1.3612,-0.28823 0.0428,0.0428 -0.34753,2.581 -0.86748,5.6404 -0.51995,3.0594 -1.1607,6.9944 -1.424,8.7445 l -0.47865,3.182 -1.427,2.1213 c -5.2572,7.8151 -11.817,16.287 -16.775,21.664 -5.4498,5.9107 -10.574,9.7193 -13.217,9.8236 -0.54048,0.0213 -2.2022,-0.0673 -3.6928,-0.1969 z m 7.8918,-10.587 c 6.0039,-3.5259 15.006,-13.717 24.797,-28.074 l 1.8922,-2.7745 0.36754,-2.1753 c 0.20215,-1.1964 0.42148,-2.445 0.48742,-2.7746 l 0.11987,-0.59927 -0.66316,0.12441 c -0.45139,0.0847 -0.62605,0.0644 -0.54695,-0.0636 0.0645,-0.1043 -0.0157,-0.18805 -0.17998,-0.18805 -0.21879,0 -0.27463,-0.11288 -0.21364,-0.4319 l 0.0826,-0.43189 -2.0507,0.0909 c -3.616,0.16022 -3.0115,0.48174 -13.337,-7.0936 -6.9952,-5.132 -8.9365,-6.6393 -9.0131,-6.9981 -0.0537,-0.25157 -0.42048,-0.86574 -0.81498,-1.3648 -0.73831,-0.93403 -0.88169,-1.2169 -0.4963,-0.97914 0.53504,0.33009 -1.0898,-1.4735 -2.4111,-2.6762 -5.2155,-4.7478 -12.304,-8.5539 -15.206,-8.1647 -0.81645,0.10951 -1.5194,0.76899 -1.5194,1.4254 0,0.95873 -6.0183,9.8375 -8.5337,12.59 -1.0335,1.1308 -2.5485,2.3588 -7.7098,6.2494 -6.2074,4.6792 -9.8584,7.8402 -11.259,9.7476 -0.78366,1.0676 -0.72721,1.5384 0.36869,3.0755 1.4302,2.006 7.1322,7.2733 12.372,11.429 0.68059,0.53977 6.1158,4.2655 12.078,8.2795 11.466,7.7187 12.611,8.6045 13.545,10.479 0.24837,0.4984 0.45158,1.0919 0.45158,1.319 0,0.2271 0.0994,0.45057 0.22097,0.49676 0.49299,0.18734 2.9602,0.40392 4.2868,0.37631 1.351,-0.0281 1.4799,-0.068 2.8836,-0.89236 z"
       id="path16"
       inkscape:connector-curvature="0"
       style="fill:#88542a" />
    <path
       d="m 326.51,510.14 c 0,0 -0.90556,-11.187 -4.5651,-9.7074 -3.65954,1.4796 -2.4656,4.6447 -2.4656,4.6447 0,0 -2.9866,-1.529 -3.9327,-0.84259 -0.9461,0.68641 -1.8433,4.6972 -1.8433,4.6972 l -3.5718,-0.68444 0.0421,5.3032 c 0,0 -7.4489,-0.18144 -2.1789,3.0088 5.27,3.19024 9.2652,3.3995 9.2652,3.3995 l 9.2501,-9.819 z"
       id="path18"
       inkscape:connector-curvature="0"
       style="fill:#c3dd6e;stroke:#8faf27;stroke-width:2;stroke-linejoin:round" />
    <path
       d="m 310.26,525.92 c 0,0 -11.172,-1.0701 -10.358,2.7921 0.814,3.8622 4.1404,3.2419 4.1404,3.2419 0,0 -2.029,2.6722 -1.5192,3.724 0.5098,1.0518 4.3012,2.6384 4.3012,2.6384 l -1.3002,3.3965 5.2284,0.88848 c 0,0 -1.4848,7.3017 2.5801,2.6727 4.0649,-4.629 4.9716,-8.5255 4.9716,-8.5255 l -8.0448,-10.829 z"
       id="path20"
       inkscape:connector-curvature="0"
       style="fill:#c3dd6e;stroke:#8faf27;stroke-width:2;stroke-linejoin:round" />
    <path
       d="m 343.06,554.16 c 0,0 -9.8825,5.3193 -7.0589,8.0775 2.8236,2.7582 5.2438,0.39403 5.2438,0.39403 0,0 -0.20168,3.3492 0.80674,3.9402 1.00842,0.591 5.0421,-0.19702 5.0421,-0.19702 l 0.80673,3.5462 4.8404,-2.1671 c 0,0 2.8236,6.8954 3.6303,0.78805 0.8067,-6.10735 -0.60506,-9.8506 -0.60506,-9.8506 l -12.706,-4.5313 z"
       id="path22"
       inkscape:connector-curvature="0"
       style="fill:#c3dd6e;stroke:#8faf27;stroke-width:2" />
    <path
       d="m 354.47,507.55 -47.413,28.991 c 0,0 31.85,22.274 31.126,24.749 -0.724,2.475 44.879,-12.021 45.241,-14.142 0.362,-2.121 -20.63,-43.487 -28.954,-39.598 z"
       id="path24"
       inkscape:connector-curvature="0"
       style="fill:#fffbde" />
    <path
       transform="matrix(0.94505,0,0,1,387.68,-4.7013)"
       d="m -50.912,546.07 c 0,4.6863 -7.2022,8.4853 -16.087,8.4853 -8.8848,0 -16.087,-3.799 -16.087,-8.4853 0,-4.6863 7.2022,-8.4853 16.087,-8.4853 8.8848,0 16.087,3.799 16.087,8.4853 z"
       id="path26"
       inkscape:connector-curvature="0"
       style="fill:#a52728" />
    <path
       transform="matrix(0.87912,0,0,0.87912,382.91,59.858)"
       d="m -50.912,546.07 c 0,4.6863 -7.2022,8.4853 -16.087,8.4853 -8.8848,0 -16.087,-3.799 -16.087,-8.4853 0,-4.6863 7.2022,-8.4853 16.087,-8.4853 8.8848,0 16.087,3.799 16.087,8.4853 z"
       id="path28"
       inkscape:connector-curvature="0"
       style="fill:#e34a4d" />
    <path
       transform="matrix(0.30769,0,0,0.27644,346.04,392.94)"
       d="m -50.912,546.07 c 0,4.6863 -7.2022,8.4853 -16.087,8.4853 -8.8848,0 -16.087,-3.799 -16.087,-8.4853 0,-4.6863 7.2022,-8.4853 16.087,-8.4853 8.8848,0 16.087,3.799 16.087,8.4853 z"
       id="path30"
       inkscape:connector-curvature="0"
       style="opacity:0.32706999;fill:#ec847c" />
    <path
       transform="matrix(0.30769,0,0,0.27644,352.23,387.99)"
       d="m -50.912,546.07 c 0,4.6863 -7.2022,8.4853 -16.087,8.4853 -8.8848,0 -16.087,-3.799 -16.087,-8.4853 0,-4.6863 7.2022,-8.4853 16.087,-8.4853 8.8848,0 16.087,3.799 16.087,8.4853 z"
       id="path32"
       inkscape:connector-curvature="0"
       style="fill:#e65d5c" />
    <path
       transform="matrix(0.30769,0,0,0.27644,337.38,389.23)"
       d="m -50.912,546.07 c 0,4.6863 -7.2022,8.4853 -16.087,8.4853 -8.8848,0 -16.087,-3.799 -16.087,-8.4853 0,-4.6863 7.2022,-8.4853 16.087,-8.4853 8.8848,0 16.087,3.799 16.087,8.4853 z"
       id="path34"
       inkscape:connector-curvature="0"
       style="fill:#e65d5c" />
    <path
       transform="matrix(0.25275,0,0,0.22708,339.89,411.66)"
       d="m -50.912,546.07 c 0,4.6863 -7.2022,8.4853 -16.087,8.4853 -8.8848,0 -16.087,-3.799 -16.087,-8.4853 0,-4.6863 7.2022,-8.4853 16.087,-8.4853 8.8848,0 16.087,3.799 16.087,8.4853 z"
       id="path36"
       inkscape:connector-curvature="0"
       style="fill:#e65d5c" />
    <path
       transform="matrix(0.94505,0,0,1,436.18,-6.2013)"
       d="m -50.912,546.07 c 0,4.6863 -7.2022,8.4853 -16.087,8.4853 -8.8848,0 -16.087,-3.799 -16.087,-8.4853 0,-4.6863 7.2022,-8.4853 16.087,-8.4853 8.8848,0 16.087,3.799 16.087,8.4853 z"
       id="path38"
       inkscape:connector-curvature="0"
       style="fill:#a52728" />
    <path
       transform="matrix(0.87912,0,0,0.87912,431.41,58.358)"
       d="m -50.912,546.07 c 0,4.6863 -7.2022,8.4853 -16.087,8.4853 -8.8848,0 -16.087,-3.799 -16.087,-8.4853 0,-4.6863 7.2022,-8.4853 16.087,-8.4853 8.8848,0 16.087,3.799 16.087,8.4853 z"
       id="path40"
       inkscape:connector-curvature="0"
       style="fill:#e34a4d" />
    <path
       transform="matrix(0.30769,0,0,0.27644,394.54,391.44)"
       d="m -50.912,546.07 c 0,4.6863 -7.2022,8.4853 -16.087,8.4853 -8.8848,0 -16.087,-3.799 -16.087,-8.4853 0,-4.6863 7.2022,-8.4853 16.087,-8.4853 8.8848,0 16.087,3.799 16.087,8.4853 z"
       id="path42"
       inkscape:connector-curvature="0"
       style="opacity:0.32706999;fill:#ec847c" />
    <path
       transform="matrix(0.30769,0,0,0.27644,400.73,386.49)"
       d="m -50.912,546.07 c 0,4.6863 -7.2022,8.4853 -16.087,8.4853 -8.8848,0 -16.087,-3.799 -16.087,-8.4853 0,-4.6863 7.2022,-8.4853 16.087,-8.4853 8.8848,0 16.087,3.799 16.087,8.4853 z"
       id="path44"
       inkscape:connector-curvature="0"
       style="fill:#e65d5c" />
    <path
       transform="matrix(0.30769,0,0,0.27644,385.88,387.73)"
       d="m -50.912,546.07 c 0,4.6863 -7.2022,8.4853 -16.087,8.4853 -8.8848,0 -16.087,-3.799 -16.087,-8.4853 0,-4.6863 7.2022,-8.4853 16.087,-8.4853 8.8848,0 16.087,3.799 16.087,8.4853 z"
       id="path46"
       inkscape:connector-curvature="0"
       style="fill:#e65d5c" />
    <path
       transform="matrix(0.25275,0,0,0.22708,388.39,410.16)"
       d="m -50.912,546.07 c 0,4.6863 -7.2022,8.4853 -16.087,8.4853 -8.8848,0 -16.087,-3.799 -16.087,-8.4853 0,-4.6863 7.2022,-8.4853 16.087,-8.4853 8.8848,0 16.087,3.799 16.087,8.4853 z"
       id="path48"
       inkscape:connector-curvature="0"
       style="fill:#e65d5c" />
    <path
       d="m 308.64,519.98 c -1.8074,1.7959 -0.96179,5.7572 -1.9946,9.8621 0,3.3353 15.075,14.91 15.075,14.91 l 19.98,13.392 c 0,0 6.5709,2.8216 4.747,5.6438 l 6.1817,1.7191 c 10.845,-2.8222 30.707,-33.334 30.707,-33.334 l 2.176,-14.242 c 0,0 -5.0346,7.4952 -8.3913,6.469 -31.318,-29.516 -36.747,-26.154 -68.481,-4.4196 z"
       id="path50"
       inkscape:connector-curvature="0"
       style="fill:#cf9361;stroke:#cf9361;stroke-width:1.01919997" />
    <path
       d="m 337.41,492.99 c 0,0 -7.2221,11.699 -10,13.214 -1.7678,1.7678 -17.204,12.031 -18.214,16.071 0,3.283 14.744,14.676 14.744,14.676 l 19.541,13.181 c 0,0 6.9157,4.0078 4.6428,6.7857 l 6.046,0.46175 c 10.607,-2.7779 30.033,-32.811 30.033,-32.811 l 1.148,-6.469 c 0.459,-1.8896 0.18054,-1.4778 -1.5119,-1.1052 -1.5291,0.2889 -3.7837,0.51742 -5.715,-0.0768 l -17.5,-12.857 c 0.25254,-4.5457 -22.143,-20.87 -23.214,-11.071 z"
       id="path52"
       inkscape:connector-curvature="0"
       style="fill:#fff7dc;stroke:#cf9361;stroke-width:3" />
    <path
       d="m 342.59313,498.86117 c -0.27765,0.0129 -0.51461,0.23812 -0.59375,0.53125 0.21057,1.50299 1.45074,2.00245 2.65625,2.5 0.19883,-0.0976 0.35064,-0.20433 0.46875,-0.3125 -1.18512,-0.48899 -2.38704,-0.99329 -2.59375,-2.46875 0.0264,-0.0977 0.0675,-0.17506 0.125,-0.25 z"
       id="path54"
       inkscape:connector-curvature="0"
       style="fill:#cf9361" />
    <path
       d="m 321.35563,520.82367 c -0.16659,0.008 -0.30877,0.14287 -0.35625,0.31875 0.12634,0.90179 0.87044,1.20147 1.59375,1.5 0.1193,-0.0586 0.21038,-0.1226 0.28125,-0.1875 -0.71107,-0.29339 -1.43222,-0.59597 -1.55625,-1.48125 0.0158,-0.0586 0.0405,-0.10504 0.075,-0.15 z"
       id="path56"
       inkscape:connector-curvature="0"
       style="fill:#cf9361" />
    <path
       d="m 358.39637,528.18763 c -0.16659,0.008 -0.30877,0.14287 -0.35625,0.31875 0.12634,0.90179 0.87044,1.20147 1.59375,1.5 0.1193,-0.0586 0.21038,-0.1226 0.28125,-0.1875 -0.71108,-0.29339 -1.43223,-0.59597 -1.55625,-1.48125 0.0158,-0.0586 0.0405,-0.10504 0.075,-0.15 z"
       id="path58"
       inkscape:connector-curvature="0"
       style="fill:#cf9361" />
    <path
       d="m 331.22223,525.48258 c -0.21868,0.0129 -0.40532,0.23812 -0.46765,0.53124 0.16585,1.50294 1.14262,2.00239 2.0921,2.49992 0.1566,-0.0976 0.27616,-0.20432 0.36919,-0.31249 -0.93342,-0.48897 -1.88006,-0.99326 -2.04287,-2.46867 0.0208,-0.0977 0.0532,-0.17505 0.0985,-0.25 h -0.0492 z"
       id="path60"
       inkscape:connector-curvature="0"
       style="fill:#cf9361" />
    <path
       d="m 351.14852,519.70235 c -0.16659,0.008 -0.30876,0.14287 -0.35625,0.31875 0.12634,0.90179 0.87045,1.20147 1.59375,1.5 0.1193,-0.0586 0.21039,-0.1226 0.28125,-0.1875 -0.71107,-0.29339 -1.43222,-0.59597 -1.55625,-1.48125 0.0158,-0.0586 0.0405,-0.10504 0.075,-0.15 z"
       id="path62"
       inkscape:connector-curvature="0"
       style="fill:#cf9361" />
    <path
       d="m 340.42971,490.76117 c -0.56373,0.0165 -0.95111,0.15286 -1.1875,0.3125 -0.31518,0.21286 -0.55546,0.51575 -0.65625,1.4375 l -0.0312,0.34375 -0.1875,0.28125 c 0,0 -1.82051,2.94092 -4,6.09375 -1.08974,1.57642 -2.26537,3.23246 -3.375,4.59375 -0.99576,1.22159 -1.84083,2.16193 -2.84375,2.8125 -0.11469,0.0744 -0.22399,0.1847 -0.34375,0.25 -0.7198,0.66376 -1.72597,1.40491 -3.28125,2.5625 -1.71399,1.27571 -3.82388,2.83912 -5.90625,4.46875 -2.08237,1.62963 -4.13692,3.3496 -5.6875,4.84375 -1.46686,1.41347 -2.3091,2.67633 -2.46875,3.0625 0.0325,0.0693 0.0618,0.17333 0.3125,0.5625 0.13275,0.20603 0.33776,0.46512 0.53125,0.71875 -0.25075,-0.38917 -0.28002,-0.49318 -0.3125,-0.5625 0.15878,-0.38519 1.03226,-1.67942 2.5,-3.09375 1.55058,-1.49415 3.57388,-3.18287 5.65625,-4.8125 2.08237,-1.62963 4.22351,-3.19304 5.9375,-4.46875 1.55444,-1.15696 2.53015,-1.89894 3.25,-2.5625 0.11976,-0.0653 0.22906,-0.1756 0.34375,-0.25 1.00292,-0.65057 1.84799,-1.62216 2.84375,-2.84375 1.10963,-1.36129 2.28526,-2.98608 3.375,-4.5625 2.17949,-3.15283 4,-6.09375 4,-6.09375 l 0.1875,-0.28125 0.0312,-0.34375 c 0.10079,-0.92175 0.34107,-1.22464 0.65625,-1.4375 0.31518,-0.21286 0.90346,-0.37171 1.8125,-0.28125 1.81809,0.18091 4.62895,1.35059 7.375,3 2.74605,1.64941 5.48797,3.76791 7.46875,5.6875 0.77771,0.75368 1.38663,1.4334 1.875,2.0625 l -0.125,-0.1875 c -0.50435,-0.73671 -1.29086,-1.63396 -2.28125,-2.59375 -1.98078,-1.91959 -4.7227,-4.03809 -7.46875,-5.6875 -2.74605,-1.64941 -5.55691,-2.81909 -7.375,-3 -0.22726,-0.0226 -0.43709,-0.0367 -0.625,-0.0312 z m 20.21875,9.625 c 0.47875,0.69933 0.82728,1.39951 1,2.15625 l 0.4375,0.3125 c -0.18704,-0.6076 -0.48064,-1.17395 -0.875,-1.75 -0.16455,-0.24037 -0.37006,-0.47469 -0.5625,-0.71875 z m -1.34375,4.15625 v 0.3125 l 0.65625,0.5 17.5,12.84375 0.1875,0.15625 0.25,0.0625 c 1.97506,0.6077 3.83321,0.51645 5.375,0.28125 l 0.15625,-0.8125 c -1.65331,0.31476 -3.79014,0.51168 -6.0625,-0.1875 l -0.25,-0.0625 -0.1875,-0.15625 -17.5,-12.84375 -0.125,-0.0937 z"
       id="path64"
       inkscape:connector-curvature="0"
       style="fill:#e7c9b0" />
    <path
       d="m 318.86,531.22 -1.4688,10.25 c 0.90361,0.75523 1.7959,1.5124 2.7188,2.25 0.43752,0.34969 5.8472,4.0115 12.031,8.1562 11.834,7.9312 13.111,8.9079 13.719,10.5 0.23247,0.60872 0.24298,0.77335 0.0312,1.2188 l 0.25,0.15625 c 0,-0.84518 1.1831,-5.4567 2.4062,-10.031 -0.0744,-0.19873 -0.15154,-0.39616 -0.25,-0.59375 -0.93396,-1.8742 -2.0655,-2.7813 -13.531,-10.5 -5.9625,-4.0139 -11.413,-7.7415 -12.094,-8.2812 -1.2649,-1.0032 -2.5604,-2.0538 -3.8125,-3.125 z"
       id="path66"
       style="fill:url(#a)"
       inkscape:connector-curvature="0" />
    <path
       d="m 377.51,533.17 c -6.518,7.2055 -15.684,20.887 -23.548,22.542 0,0 -2.0358,6.846 -1.1213,10.196 2.8397,-1.0295 8.4304,-5.01 13.031,-10 4.9579,-5.3771 13.149,-15.466 17.531,-23.781 1.25,-2 2.0196,-12.914 2.0196,-12.914 -0.52416,0.99628 -1.0462,3.5211 -2.077,5.4955 -1.8504,3.5442 -4.5068,6.9814 -5.8355,8.4613 z"
       id="path68"
       inkscape:connector-curvature="0"
       style="fill:#aa6934" />
    <path
       d="m 367.45919,519.73621 c -0.58022,0.0656 -1.02269,0.30028 -1.24248,0.6878 -0.58612,1.03338 0.64687,2.84452 2.75121,4.03807 0.94986,0.53875 1.90164,0.83572 2.72902,0.93186 -0.42638,-0.15488 -0.87447,-0.33039 -1.30904,-0.57687 -2.10434,-1.19355 -3.33733,-3.00468 -2.75121,-4.03807 0.3262,-0.57512 1.14826,-0.77176 2.17434,-0.64342 -0.87125,-0.31908 -1.69948,-0.47314 -2.35184,-0.39937 z"
       id="path70"
       inkscape:connector-curvature="0"
       style="fill:#cf9361" />
    <path
       d="m 346.77632,538.82809 c -0.58022,0.0656 -1.02269,0.30028 -1.24249,0.6878 -0.58611,1.03338 0.64687,2.84452 2.75122,4.03807 0.94986,0.53875 1.90164,0.83572 2.72902,0.93186 -0.42639,-0.15488 -0.87447,-0.33039 -1.30904,-0.57687 -2.10435,-1.19355 -3.33733,-3.00468 -2.75122,-4.03807 0.32621,-0.57512 1.14827,-0.77176 2.17435,-0.64342 -0.87125,-0.31908 -1.69948,-0.47314 -2.35184,-0.39937 z"
       id="path72"
       inkscape:connector-curvature="0"
       style="fill:#cf9361" />
    <path
       d="m 339.88,514.06 c -1.309,2.2826 -3.7391,3.1489 -5.8393,2.2217 -2.1002,-0.9272 -3.4802,-2.7907 -3.0822,-4.1622 0.398,-1.3715 1.9313,-3.2163 4.2196,-3.0316 2.7076,0.21859 5.0998,3.6005 4.7019,4.972 z"
       id="path74"
       inkscape:connector-curvature="0"
       style="fill:#cf9361" />
    <path
       transform="matrix(0.50616,0.22346,-0.18115,0.62435,434.99,302.11)"
       d="m -60.458,363.38 c 0,2.1967 -3.3637,3.9775 -7.513,3.9775 -4.1493,0 -7.513,-1.7808 -7.513,-3.9775 0,-2.1967 3.3637,-3.9775 7.513,-3.9775 4.1493,0 7.513,1.7808 7.513,3.9775 z"
       id="path76"
       inkscape:connector-curvature="0"
       style="fill:#c3dd6e" />
    <path
       d="m 337.09,512.57 c -1.7106,-0.11722 -2.1858,3.2824 -2.1858,3.2824 m -2.3759,-1.2895 c 0.38014,-0.35168 1.3305,-2.9307 2.1858,-3.5168"
       id="path78"
       inkscape:connector-curvature="0"
       style="fill:none;stroke:#8faf27" />
    <path
       d="m 346,561.86 0.375,2.625 -5.8509,-4.857 -14.024,-9.893 -2,0.125 -0.75,-2.375 c -4.5741,-3.7458 -8.1638,-5.7416 -13.033,-9.4874 l -0.30715,-0.79599 -6.2845,-5.7166 1.875,-1 7.2561,7.6799 12.119,9.6951 2.25,1.625 15.56,9.6538 2.8153,2.7212 z"
       id="path80"
       inkscape:connector-curvature="0"
       style="opacity:0.2;fill:#2e3436" />
    <path
       d="m 310.12,512.49 2.75,3"
       id="path82"
       inkscape:connector-curvature="0"
       style="fill:none;stroke:#8faf27;stroke-width:2" />
    <path
       d="m 319.75,505.24 2.75,3"
       id="path84"
       inkscape:connector-curvature="0"
       style="fill:none;stroke:#8faf27;stroke-width:2" />
    <path
       d="m 314,508.99 3.125,3.125"
       id="path86"
       inkscape:connector-curvature="0"
       style="fill:none;stroke:#8faf27;stroke-width:2" />
  </g>
  <text
     xml:space="preserve"
     style="font-style:normal;font-weight:normal;font-size:14.62346554px;line-height:1.25;font-family:sans-serif;letter-spacing:0px;word-spacing:0px;fill:#554400;fill-opacity:1;stroke:none;stroke-width:0.36558661"
     x="7.5517764"
     y="27.522032"
     id="text55"><tspan
       sodipodi:role="line"
       id="tspan53"
       x="7.5517764"
       y="27.522032"
       style="font-style:normal;font-variant:normal;font-weight:900;font-stretch:normal;font-family:'Verdana Pro';-inkscape-font-specification:'Verdana Pro Heavy';letter-spacing:1.79868615px;fill:#554400;stroke-width:0.36558661">EKJ</tspan></text>
</svg>
